<?xml version="1.0" encoding="UTF-8" standalone="no"?>
<!DOCTYPE svg PUBLIC "-//W3C//DTD SVG 1.1//EN"
 "http://www.w3.org/Graphics/SVG/1.1/DTD/svg11.dtd">
<!-- Generated by graphviz version 2.26.3 (20100126.1600)
 -->
<!-- Title: controllers_diagram Pages: 1 -->
<svg width="806pt" height="571pt"
 viewBox="0.00 0.00 806.00 571.00" xmlns="http://www.w3.org/2000/svg" xmlns:xlink="http://www.w3.org/1999/xlink">
<g id="graph1" class="graph" transform="scale(1 1) rotate(0) translate(4 567)">
<title>controllers_diagram</title>
<polygon fill="white" stroke="white" points="-4,5 -4,-567 803,-567 803,5 -4,5"/>
<!-- _diagram_info -->
<g id="node1" class="node"><title>_diagram_info</title>
<text text-anchor="start" x="555" y="-546.3" font-family="Times Roman,serif" font-size="13.00">Controllers diagram</text>
<text text-anchor="start" x="555" y="-529.3" font-family="Times Roman,serif" font-size="13.00">Date: Dec 01 2012 &#45; 07:15</text>
<text text-anchor="start" x="555" y="-512.3" font-family="Times Roman,serif" font-size="13.00">Migration version: 20121201011037</text>
<text text-anchor="start" x="555" y="-495.3" font-family="Times Roman,serif" font-size="13.00">Generated by RailRoady 1.1.0</text>
<text text-anchor="start" x="555" y="-478.3" font-family="Times Roman,serif" font-size="13.00">http://railroady.prestonlee.com</text>
</g>
<!-- GroupsController -->
<g id="node2" class="node"><title>GroupsController</title>
<polyline fill="none" stroke="black" points="13,-89.3079 236,-89.3079 "/>
<path fill="none" stroke="black" d="M236,-89.3079C242,-89.3079 248,-95.3079 248,-101.308"/>
<polyline fill="none" stroke="black" points="248,-101.308 248,-215.308 "/>
<path fill="none" stroke="black" d="M248,-215.308C248,-221.308 242,-227.308 236,-227.308"/>
<polyline fill="none" stroke="black" points="236,-227.308 13,-227.308 "/>
<path fill="none" stroke="black" d="M13,-227.308C7,-227.308 1,-221.308 1,-215.308"/>
<polyline fill="none" stroke="black" points="1,-215.308 1,-101.308 "/>
<path fill="none" stroke="black" d="M1,-101.308C1,-95.3079 7,-89.3079 13,-89.3079"/>
<text text-anchor="middle" x="124.5" y="-210.708" font-family="Times Roman,serif" font-size="14.00">GroupsController</text>
<polyline fill="none" stroke="black" points="1,-201.308 248,-201.308 "/>
<text text-anchor="start" x="9" y="-184.708" font-family="Times Roman,serif" font-size="14.00">_one_time_conditions_valid_140?</text>
<text text-anchor="start" x="9" y="-166.708" font-family="Times Roman,serif" font-size="14.00">index</text>
<text text-anchor="start" x="9" y="-148.708" font-family="Times Roman,serif" font-size="14.00">new</text>
<polyline fill="none" stroke="black" points="1,-139.308 248,-139.308 "/>
<polyline fill="none" stroke="black" points="1,-115.308 248,-115.308 "/>
<text text-anchor="start" x="9" y="-98.7079" font-family="Times Roman,serif" font-size="14.00">_layout</text>
</g>
<!-- ApplicationController -->
<g id="node3" class="node"><title>ApplicationController</title>
<polyline fill="none" stroke="black" points="117.941,-280.342 340.941,-280.342 "/>
<path fill="none" stroke="black" d="M340.941,-280.342C346.941,-280.342 352.941,-286.342 352.941,-292.342"/>
<polyline fill="none" stroke="black" points="352.941,-292.342 352.941,-370.342 "/>
<path fill="none" stroke="black" d="M352.941,-370.342C352.941,-376.342 346.941,-382.342 340.941,-382.342"/>
<polyline fill="none" stroke="black" points="340.941,-382.342 117.941,-382.342 "/>
<path fill="none" stroke="black" d="M117.941,-382.342C111.941,-382.342 105.941,-376.342 105.941,-370.342"/>
<polyline fill="none" stroke="black" points="105.941,-370.342 105.941,-292.342 "/>
<path fill="none" stroke="black" d="M105.941,-292.342C105.941,-286.342 111.941,-280.342 117.941,-280.342"/>
<text text-anchor="middle" x="229.441" y="-365.742" font-family="Times Roman,serif" font-size="14.00">ApplicationController</text>
<polyline fill="none" stroke="black" points="105.941,-356.342 352.941,-356.342 "/>
<text text-anchor="start" x="113.941" y="-339.742" font-family="Times Roman,serif" font-size="14.00">_one_time_conditions_valid_102?</text>
<polyline fill="none" stroke="black" points="105.941,-330.342 352.941,-330.342 "/>
<polyline fill="none" stroke="black" points="105.941,-306.342 352.941,-306.342 "/>
<text text-anchor="start" x="113.941" y="-289.742" font-family="Times Roman,serif" font-size="14.00">_layout</text>
</g>
<!-- ApplicationController&#45;&gt;GroupsController -->
<g id="edge2" class="edge"><title>ApplicationController&#45;&gt;GroupsController</title>
<path fill="none" stroke="black" d="M198.239,-279.894C188.27,-263.457 177.069,-244.987 166.464,-227.501"/>
</g>
<!-- UsersController -->
<g id="node4" class="node"><title>UsersController</title>
<polyline fill="none" stroke="black" points="307.814,-1.5 530.814,-1.5 "/>
<path fill="none" stroke="black" d="M530.814,-1.5C536.814,-1.5 542.814,-7.5 542.814,-13.5"/>
<polyline fill="none" stroke="black" points="542.814,-13.5 542.814,-181.5 "/>
<path fill="none" stroke="black" d="M542.814,-181.5C542.814,-187.5 536.814,-193.5 530.814,-193.5"/>
<polyline fill="none" stroke="black" points="530.814,-193.5 307.814,-193.5 "/>
<path fill="none" stroke="black" d="M307.814,-193.5C301.814,-193.5 295.814,-187.5 295.814,-181.5"/>
<polyline fill="none" stroke="black" points="295.814,-181.5 295.814,-13.5 "/>
<path fill="none" stroke="black" d="M295.814,-13.5C295.814,-7.5 301.814,-1.5 307.814,-1.5"/>
<text text-anchor="middle" x="419.314" y="-176.9" font-family="Times Roman,serif" font-size="14.00">UsersController</text>
<polyline fill="none" stroke="black" points="295.814,-167.5 542.814,-167.5 "/>
<text text-anchor="start" x="303.814" y="-150.9" font-family="Times Roman,serif" font-size="14.00">_one_time_conditions_valid_142?</text>
<text text-anchor="start" x="303.814" y="-132.9" font-family="Times Roman,serif" font-size="14.00">destroy</text>
<text text-anchor="start" x="303.814" y="-114.9" font-family="Times Roman,serif" font-size="14.00">index</text>
<text text-anchor="start" x="303.814" y="-96.9" font-family="Times Roman,serif" font-size="14.00">new</text>
<text text-anchor="start" x="303.814" y="-78.9" font-family="Times Roman,serif" font-size="14.00">show</text>
<text text-anchor="start" x="303.814" y="-60.9" font-family="Times Roman,serif" font-size="14.00">update</text>
<polyline fill="none" stroke="black" points="295.814,-51.5 542.814,-51.5 "/>
<polyline fill="none" stroke="black" points="295.814,-27.5 542.814,-27.5 "/>
<text text-anchor="start" x="303.814" y="-10.9" font-family="Times Roman,serif" font-size="14.00">_layout</text>
</g>
<!-- ApplicationController&#45;&gt;UsersController -->
<g id="edge4" class="edge"><title>ApplicationController&#45;&gt;UsersController</title>
<path fill="none" stroke="black" d="M270.875,-280.313C291.498,-254.914 317.123,-223.356 341.246,-193.647"/>
</g>
<!-- PagesController -->
<g id="node5" class="node"><title>PagesController</title>
<polyline fill="none" stroke="black" points="414.947,-259.8 515.947,-259.8 "/>
<path fill="none" stroke="black" d="M515.947,-259.8C521.947,-259.8 527.947,-265.8 527.947,-271.8"/>
<polyline fill="none" stroke="black" points="527.947,-271.8 527.947,-385.8 "/>
<path fill="none" stroke="black" d="M527.947,-385.8C527.947,-391.8 521.947,-397.8 515.947,-397.8"/>
<polyline fill="none" stroke="black" points="515.947,-397.8 414.947,-397.8 "/>
<path fill="none" stroke="black" d="M414.947,-397.8C408.947,-397.8 402.947,-391.8 402.947,-385.8"/>
<polyline fill="none" stroke="black" points="402.947,-385.8 402.947,-271.8 "/>
<path fill="none" stroke="black" d="M402.947,-271.8C402.947,-265.8 408.947,-259.8 414.947,-259.8"/>
<text text-anchor="middle" x="465.447" y="-381.2" font-family="Times Roman,serif" font-size="14.00">PagesController</text>
<polyline fill="none" stroke="black" points="402.947,-371.8 527.947,-371.8 "/>
<text text-anchor="start" x="410.947" y="-355.2" font-family="Times Roman,serif" font-size="14.00">about</text>
<text text-anchor="start" x="410.947" y="-337.2" font-family="Times Roman,serif" font-size="14.00">contact</text>
<text text-anchor="start" x="410.947" y="-319.2" font-family="Times Roman,serif" font-size="14.00">help</text>
<polyline fill="none" stroke="black" points="402.947,-309.8 527.947,-309.8 "/>
<polyline fill="none" stroke="black" points="402.947,-285.8 527.947,-285.8 "/>
<text text-anchor="start" x="410.947" y="-269.2" font-family="Times Roman,serif" font-size="14.00">_layout</text>
</g>
<!-- ApplicationController&#45;&gt;PagesController -->
<g id="edge6" class="edge"><title>ApplicationController&#45;&gt;PagesController</title>
<path fill="none" stroke="black" d="M352.973,-330.012C370.26,-329.825 387.388,-329.641 402.869,-329.474"/>
</g>
</g>
</svg>
