<?xml version="1.0" encoding="UTF-8" standalone="no"?>
<!DOCTYPE svg PUBLIC "-//W3C//DTD SVG 1.1//EN"
 "http://www.w3.org/Graphics/SVG/1.1/DTD/svg11.dtd">
<!-- Generated by graphviz version 2.26.3 (20100126.1600)
 -->
<!-- Title: models_diagram Pages: 1 -->
<svg width="723pt" height="926pt"
 viewBox="0.00 0.00 723.00 926.00" xmlns="http://www.w3.org/2000/svg" xmlns:xlink="http://www.w3.org/1999/xlink">
<g id="graph1" class="graph" transform="scale(1 1) rotate(0) translate(4 922)">
<title>models_diagram</title>
<polygon fill="white" stroke="white" points="-4,5 -4,-922 720,-922 720,5 -4,5"/>
<!-- _diagram_info -->
<g id="node1" class="node"><title>_diagram_info</title>
<text text-anchor="start" x="8" y="-804.8" font-family="Times Roman,serif" font-size="13.00">Models diagram</text>
<text text-anchor="start" x="8" y="-787.8" font-family="Times Roman,serif" font-size="13.00">Date: Dec 01 2012 &#45; 07:15</text>
<text text-anchor="start" x="8" y="-770.8" font-family="Times Roman,serif" font-size="13.00">Migration version: 20121201011037</text>
<text text-anchor="start" x="8" y="-753.8" font-family="Times Roman,serif" font-size="13.00">Generated by RailRoady 1.1.0</text>
<text text-anchor="start" x="8" y="-736.8" font-family="Times Roman,serif" font-size="13.00">http://railroady.prestonlee.com</text>
</g>
<!-- UserGroup -->
<g id="node2" class="node"><title>UserGroup</title>
<polyline fill="none" stroke="black" points="261.5,-262 402.5,-262 "/>
<path fill="none" stroke="black" d="M402.5,-262C408.5,-262 414.5,-268 414.5,-274"/>
<polyline fill="none" stroke="black" points="414.5,-274 414.5,-374 "/>
<path fill="none" stroke="black" d="M414.5,-374C414.5,-380 408.5,-386 402.5,-386"/>
<polyline fill="none" stroke="black" points="402.5,-386 261.5,-386 "/>
<path fill="none" stroke="black" d="M261.5,-386C255.5,-386 249.5,-380 249.5,-374"/>
<polyline fill="none" stroke="black" points="249.5,-374 249.5,-274 "/>
<path fill="none" stroke="black" d="M249.5,-274C249.5,-268 255.5,-262 261.5,-262"/>
<text text-anchor="middle" x="332" y="-369.4" font-family="Times Roman,serif" font-size="14.00">UserGroup</text>
<polyline fill="none" stroke="black" points="249.5,-360 414.5,-360 "/>
<text text-anchor="start" x="257.5" y="-343.4" font-family="Times Roman,serif" font-size="14.00">id :integer</text>
<text text-anchor="start" x="257.5" y="-325.4" font-family="Times Roman,serif" font-size="14.00">group_id :integer</text>
<text text-anchor="start" x="257.5" y="-307.4" font-family="Times Roman,serif" font-size="14.00">user_id :integer</text>
<text text-anchor="start" x="257.5" y="-289.4" font-family="Times Roman,serif" font-size="14.00">created_at :datetime</text>
<text text-anchor="start" x="257.5" y="-271.4" font-family="Times Roman,serif" font-size="14.00">updated_at :datetime</text>
</g>
<!-- User -->
<g id="node3" class="node"><title>User</title>
<polyline fill="none" stroke="black" points="280,-631 510,-631 "/>
<path fill="none" stroke="black" d="M510,-631C516,-631 522,-637 522,-643"/>
<polyline fill="none" stroke="black" points="522,-643 522,-905 "/>
<path fill="none" stroke="black" d="M522,-905C522,-911 516,-917 510,-917"/>
<polyline fill="none" stroke="black" points="510,-917 280,-917 "/>
<path fill="none" stroke="black" d="M280,-917C274,-917 268,-911 268,-905"/>
<polyline fill="none" stroke="black" points="268,-905 268,-643 "/>
<path fill="none" stroke="black" d="M268,-643C268,-637 274,-631 280,-631"/>
<text text-anchor="middle" x="395" y="-900.4" font-family="Times Roman,serif" font-size="14.00">User</text>
<polyline fill="none" stroke="black" points="268,-891 522,-891 "/>
<text text-anchor="start" x="276" y="-874.4" font-family="Times Roman,serif" font-size="14.00">id :integer</text>
<text text-anchor="start" x="276" y="-856.4" font-family="Times Roman,serif" font-size="14.00">email :string</text>
<text text-anchor="start" x="276" y="-838.4" font-family="Times Roman,serif" font-size="14.00">encrypted_password :string</text>
<text text-anchor="start" x="276" y="-820.4" font-family="Times Roman,serif" font-size="14.00">reset_password_token :string</text>
<text text-anchor="start" x="276" y="-802.4" font-family="Times Roman,serif" font-size="14.00">reset_password_sent_at :datetime</text>
<text text-anchor="start" x="276" y="-784.4" font-family="Times Roman,serif" font-size="14.00">remember_created_at :datetime</text>
<text text-anchor="start" x="276" y="-766.4" font-family="Times Roman,serif" font-size="14.00">sign_in_count :integer</text>
<text text-anchor="start" x="276" y="-748.4" font-family="Times Roman,serif" font-size="14.00">current_sign_in_at :datetime</text>
<text text-anchor="start" x="276" y="-730.4" font-family="Times Roman,serif" font-size="14.00">last_sign_in_at :datetime</text>
<text text-anchor="start" x="276" y="-712.4" font-family="Times Roman,serif" font-size="14.00">current_sign_in_ip :string</text>
<text text-anchor="start" x="276" y="-694.4" font-family="Times Roman,serif" font-size="14.00">last_sign_in_ip :string</text>
<text text-anchor="start" x="276" y="-676.4" font-family="Times Roman,serif" font-size="14.00">created_at :datetime</text>
<text text-anchor="start" x="276" y="-658.4" font-family="Times Roman,serif" font-size="14.00">updated_at :datetime</text>
<text text-anchor="start" x="276" y="-640.4" font-family="Times Roman,serif" font-size="14.00">name :string</text>
</g>
<!-- User&#45;&gt;UserGroup -->
<g id="edge4" class="edge"><title>User&#45;&gt;UserGroup</title>
<path fill="none" stroke="#841ddb" d="M312.582,-623.1C309.222,-613.42 306.307,-603.676 304,-594 288.284,-528.08 299.059,-451.024 311.522,-396.143"/>
<ellipse fill="none" stroke="#841ddb" cx="314.015" cy="-627.082" rx="4.00001" ry="4.00001"/>
<polygon fill="#841ddb" stroke="#841ddb" points="311.58,-395.897 318.244,-387.189 312.722,-391.029 313.863,-386.161 313.863,-386.161 313.863,-386.161 312.722,-391.029 309.482,-385.134 311.58,-395.897 311.58,-395.897"/>
</g>
<!-- BillSplit -->
<g id="node4" class="node"><title>BillSplit</title>
<polyline fill="none" stroke="black" points="132.5,-1 293.5,-1 "/>
<path fill="none" stroke="black" d="M293.5,-1C299.5,-1 305.5,-7 305.5,-13"/>
<polyline fill="none" stroke="black" points="305.5,-13 305.5,-185 "/>
<path fill="none" stroke="black" d="M305.5,-185C305.5,-191 299.5,-197 293.5,-197"/>
<polyline fill="none" stroke="black" points="293.5,-197 132.5,-197 "/>
<path fill="none" stroke="black" d="M132.5,-197C126.5,-197 120.5,-191 120.5,-185"/>
<polyline fill="none" stroke="black" points="120.5,-185 120.5,-13 "/>
<path fill="none" stroke="black" d="M120.5,-13C120.5,-7 126.5,-1 132.5,-1"/>
<text text-anchor="middle" x="213" y="-180.4" font-family="Times Roman,serif" font-size="14.00">BillSplit</text>
<polyline fill="none" stroke="black" points="120.5,-171 305.5,-171 "/>
<text text-anchor="start" x="128.5" y="-154.4" font-family="Times Roman,serif" font-size="14.00">id :integer</text>
<text text-anchor="start" x="128.5" y="-136.4" font-family="Times Roman,serif" font-size="14.00">user_id :integer</text>
<text text-anchor="start" x="128.5" y="-118.4" font-family="Times Roman,serif" font-size="14.00">bill_id :integer</text>
<text text-anchor="start" x="128.5" y="-100.4" font-family="Times Roman,serif" font-size="14.00">group_id :integer</text>
<text text-anchor="start" x="128.5" y="-82.4" font-family="Times Roman,serif" font-size="14.00">paid_amount :float</text>
<text text-anchor="start" x="128.5" y="-64.4" font-family="Times Roman,serif" font-size="14.00">computed_amount :float</text>
<text text-anchor="start" x="128.5" y="-46.4" font-family="Times Roman,serif" font-size="14.00">pay_to :text</text>
<text text-anchor="start" x="128.5" y="-28.4" font-family="Times Roman,serif" font-size="14.00">created_at :datetime</text>
<text text-anchor="start" x="128.5" y="-10.4" font-family="Times Roman,serif" font-size="14.00">updated_at :datetime</text>
</g>
<!-- User&#45;&gt;BillSplit -->
<g id="edge10" class="edge"><title>User&#45;&gt;BillSplit</title>
<path fill="none" stroke="#582826" d="M296.503,-623.687C291.673,-613.765 287.126,-603.815 283,-594 230.049,-468.029 212.333,-310.363 208.627,-207.276"/>
<ellipse fill="none" stroke="#582826" cx="298.296" cy="-627.318" rx="4.00002" ry="4.00002"/>
<polygon fill="#582826" stroke="#582826" points="208.623,-207.157 212.8,-197.018 208.463,-202.16 208.302,-197.162 208.302,-197.162 208.302,-197.162 208.463,-202.16 203.805,-197.307 208.623,-207.157 208.623,-207.157"/>
</g>
<!-- Bill -->
<g id="node6" class="node"><title>Bill</title>
<polyline fill="none" stroke="black" points="443.5,-235 584.5,-235 "/>
<path fill="none" stroke="black" d="M584.5,-235C590.5,-235 596.5,-241 596.5,-247"/>
<polyline fill="none" stroke="black" points="596.5,-247 596.5,-401 "/>
<path fill="none" stroke="black" d="M596.5,-401C596.5,-407 590.5,-413 584.5,-413"/>
<polyline fill="none" stroke="black" points="584.5,-413 443.5,-413 "/>
<path fill="none" stroke="black" d="M443.5,-413C437.5,-413 431.5,-407 431.5,-401"/>
<polyline fill="none" stroke="black" points="431.5,-401 431.5,-247 "/>
<path fill="none" stroke="black" d="M431.5,-247C431.5,-241 437.5,-235 443.5,-235"/>
<text text-anchor="middle" x="514" y="-396.4" font-family="Times Roman,serif" font-size="14.00">Bill</text>
<polyline fill="none" stroke="black" points="431.5,-387 596.5,-387 "/>
<text text-anchor="start" x="439.5" y="-370.4" font-family="Times Roman,serif" font-size="14.00">id :integer</text>
<text text-anchor="start" x="439.5" y="-352.4" font-family="Times Roman,serif" font-size="14.00">purpose :string</text>
<text text-anchor="start" x="439.5" y="-334.4" font-family="Times Roman,serif" font-size="14.00">bill_date :datetime</text>
<text text-anchor="start" x="439.5" y="-316.4" font-family="Times Roman,serif" font-size="14.00">user_id :integer</text>
<text text-anchor="start" x="439.5" y="-298.4" font-family="Times Roman,serif" font-size="14.00">group_id :integer</text>
<text text-anchor="start" x="439.5" y="-280.4" font-family="Times Roman,serif" font-size="14.00">total :float</text>
<text text-anchor="start" x="439.5" y="-262.4" font-family="Times Roman,serif" font-size="14.00">created_at :datetime</text>
<text text-anchor="start" x="439.5" y="-244.4" font-family="Times Roman,serif" font-size="14.00">updated_at :datetime</text>
</g>
<!-- User&#45;&gt;Bill -->
<g id="edge8" class="edge"><title>User&#45;&gt;Bill</title>
<path fill="none" stroke="#e50126" d="M467.756,-621.452C471.2,-612.292 474.327,-603.101 477,-594 493.187,-538.893 500.308,-475.061 504.297,-423.302"/>
<polygon fill="#e50126" stroke="#e50126" points="467.677,-621.657 459.864,-629.352 465.868,-626.319 464.059,-630.98 464.059,-630.98 464.059,-630.98 465.868,-626.319 468.255,-632.608 467.677,-621.657 467.677,-621.657"/>
<polygon fill="#e50126" stroke="#e50126" points="504.313,-423.09 509.543,-413.451 504.684,-418.104 505.055,-413.118 505.055,-413.118 505.055,-413.118 504.684,-418.104 500.567,-412.784 504.313,-423.09 504.313,-423.09"/>
</g>
<!-- Group -->
<g id="node7" class="node"><title>Group</title>
<polyline fill="none" stroke="black" points="324.5,-460 465.5,-460 "/>
<path fill="none" stroke="black" d="M465.5,-460C471.5,-460 477.5,-466 477.5,-472"/>
<polyline fill="none" stroke="black" points="477.5,-472 477.5,-572 "/>
<path fill="none" stroke="black" d="M477.5,-572C477.5,-578 471.5,-584 465.5,-584"/>
<polyline fill="none" stroke="black" points="465.5,-584 324.5,-584 "/>
<path fill="none" stroke="black" d="M324.5,-584C318.5,-584 312.5,-578 312.5,-572"/>
<polyline fill="none" stroke="black" points="312.5,-572 312.5,-472 "/>
<path fill="none" stroke="black" d="M312.5,-472C312.5,-466 318.5,-460 324.5,-460"/>
<text text-anchor="middle" x="395" y="-567.4" font-family="Times Roman,serif" font-size="14.00">Group</text>
<polyline fill="none" stroke="black" points="312.5,-558 477.5,-558 "/>
<text text-anchor="start" x="320.5" y="-541.4" font-family="Times Roman,serif" font-size="14.00">id :integer</text>
<text text-anchor="start" x="320.5" y="-523.4" font-family="Times Roman,serif" font-size="14.00">name :string</text>
<text text-anchor="start" x="320.5" y="-505.4" font-family="Times Roman,serif" font-size="14.00">description :string</text>
<text text-anchor="start" x="320.5" y="-487.4" font-family="Times Roman,serif" font-size="14.00">created_at :datetime</text>
<text text-anchor="start" x="320.5" y="-469.4" font-family="Times Roman,serif" font-size="14.00">updated_at :datetime</text>
</g>
<!-- User&#45;&gt;Group -->
<g id="edge6" class="edge"><title>User&#45;&gt;Group</title>
<path fill="none" stroke="#21e6f4" d="M395,-620.454C395,-611.437 395,-602.618 395,-594.195"/>
<polygon fill="#21e6f4" stroke="#21e6f4" points="395,-620.699 390.5,-630.699 395,-625.699 395,-630.699 395,-630.699 395,-630.699 395,-625.699 399.5,-630.699 395,-620.699 395,-620.699"/>
<polygon fill="#21e6f4" stroke="#21e6f4" points="395,-594.129 399.5,-584.129 395,-589.129 395,-584.129 395,-584.129 395,-584.129 395,-589.129 390.5,-584.129 395,-594.129 395,-594.129"/>
</g>
<!-- Role -->
<g id="node8" class="node"><title>Role</title>
<polyline fill="none" stroke="black" points="562.5,-451 703.5,-451 "/>
<path fill="none" stroke="black" d="M703.5,-451C709.5,-451 715.5,-457 715.5,-463"/>
<polyline fill="none" stroke="black" points="715.5,-463 715.5,-581 "/>
<path fill="none" stroke="black" d="M715.5,-581C715.5,-587 709.5,-593 703.5,-593"/>
<polyline fill="none" stroke="black" points="703.5,-593 562.5,-593 "/>
<path fill="none" stroke="black" d="M562.5,-593C556.5,-593 550.5,-587 550.5,-581"/>
<polyline fill="none" stroke="black" points="550.5,-581 550.5,-463 "/>
<path fill="none" stroke="black" d="M550.5,-463C550.5,-457 556.5,-451 562.5,-451"/>
<text text-anchor="middle" x="633" y="-576.4" font-family="Times Roman,serif" font-size="14.00">Role</text>
<polyline fill="none" stroke="black" points="550.5,-567 715.5,-567 "/>
<text text-anchor="start" x="558.5" y="-550.4" font-family="Times Roman,serif" font-size="14.00">id :integer</text>
<text text-anchor="start" x="558.5" y="-532.4" font-family="Times Roman,serif" font-size="14.00">name :string</text>
<text text-anchor="start" x="558.5" y="-514.4" font-family="Times Roman,serif" font-size="14.00">resource_id :integer</text>
<text text-anchor="start" x="558.5" y="-496.4" font-family="Times Roman,serif" font-size="14.00">resource_type :string</text>
<text text-anchor="start" x="558.5" y="-478.4" font-family="Times Roman,serif" font-size="14.00">created_at :datetime</text>
<text text-anchor="start" x="558.5" y="-460.4" font-family="Times Roman,serif" font-size="14.00">updated_at :datetime</text>
</g>
<!-- User&#45;&gt;Role -->
<g id="edge2" class="edge"><title>User&#45;&gt;Role</title>
<path fill="none" stroke="#4482ea" d="M529.058,-632.056C539.234,-621.282 549.26,-610.666 558.832,-600.53"/>
<polygon fill="#4482ea" stroke="#4482ea" points="528.879,-632.245 518.742,-636.426 525.446,-635.88 522.013,-639.515 522.013,-639.515 522.013,-639.515 525.446,-635.88 525.285,-642.605 528.879,-632.245 528.879,-632.245"/>
<polygon fill="#4482ea" stroke="#4482ea" points="558.852,-600.51 568.99,-596.329 562.285,-596.874 565.718,-593.239 565.718,-593.239 565.718,-593.239 562.285,-596.874 562.447,-590.15 558.852,-600.51 558.852,-600.51"/>
</g>
<!-- BillSplit&#45;&gt;User -->
<g id="edge12" class="edge"><title>BillSplit&#45;&gt;User</title>
<path fill="none" stroke="#5856dc" d="M222.331,-205.41C230.12,-308.453 247.728,-467.266 301,-594 304.845,-603.148 309.057,-612.413 313.5,-621.664"/>
<ellipse fill="none" stroke="#5856dc" cx="222.016" cy="-201.152" rx="4" ry="4"/>
<polygon fill="#5856dc" stroke="#5856dc" points="313.625,-621.92 313.971,-632.88 315.819,-626.412 318.014,-630.905 318.014,-630.905 318.014,-630.905 315.819,-626.412 322.058,-628.929 313.625,-621.92 313.625,-621.92"/>
</g>
<!-- Ability -->
<g id="node5" class="node"><title>Ability</title>
<polygon fill="none" stroke="black" points="540,-748 540,-800 600,-800 600,-748 540,-748"/>
<text text-anchor="middle" x="570" y="-783.4" font-family="Times Roman,serif" font-size="14.00">Ability</text>
<polyline fill="none" stroke="black" points="540,-774 600,-774 "/>
<text text-anchor="middle" x="570" y="-757.4" font-family="Times Roman,serif" font-size="14.00"> </text>
</g>
<!-- Bill&#45;&gt;User -->
<g id="edge16" class="edge"><title>Bill&#45;&gt;User</title>
<path fill="none" stroke="#a7ce8f" d="M520.429,-421.367C518.485,-473.464 511.39,-538.204 495,-594 492.327,-603.101 489.2,-612.292 485.735,-621.452"/>
<ellipse fill="none" stroke="#a7ce8f" cx="520.568" cy="-417.115" rx="4" ry="4"/>
<polygon fill="#a7ce8f" stroke="#a7ce8f" points="485.651,-621.667 477.816,-629.34 483.829,-626.324 482.007,-630.98 482.007,-630.98 482.007,-630.98 483.829,-626.324 486.198,-632.62 485.651,-621.667 485.651,-621.667"/>
</g>
<!-- Bill&#45;&gt;BillSplit -->
<g id="edge14" class="edge"><title>Bill&#45;&gt;BillSplit</title>
<path fill="none" stroke="#0d4dc3" d="M425.082,-235.681C424.388,-235.116 423.694,-234.556 423,-234 389.249,-206.951 349.901,-180.477 314.447,-158.238"/>
<ellipse fill="none" stroke="#0d4dc3" cx="428.259" cy="-238.318" rx="4.00002" ry="4.00002"/>
<polygon fill="#0d4dc3" stroke="#0d4dc3" points="314.011,-157.966 307.903,-148.859 309.767,-155.322 305.523,-152.678 305.523,-152.678 305.523,-152.678 309.767,-155.322 303.144,-156.497 314.011,-157.966 314.011,-157.966"/>
</g>
<!-- Group&#45;&gt;UserGroup -->
<g id="edge20" class="edge"><title>Group&#45;&gt;UserGroup</title>
<path fill="none" stroke="#8d4a00" d="M372.754,-452.084C366.964,-433.886 360.715,-414.248 354.892,-395.947"/>
<ellipse fill="none" stroke="#8d4a00" cx="374.026" cy="-456.083" rx="4.00001" ry="4.00001"/>
<polygon fill="#8d4a00" stroke="#8d4a00" points="354.831,-395.754 356.087,-384.861 353.315,-390.99 351.799,-386.225 351.799,-386.225 351.799,-386.225 353.315,-390.99 347.511,-387.589 354.831,-395.754 354.831,-395.754"/>
</g>
<!-- Group&#45;&gt;Bill -->
<g id="edge18" class="edge"><title>Group&#45;&gt;Bill</title>
<path fill="none" stroke="#6a12e1" d="M436.565,-452.842C442.595,-442.809 448.896,-432.324 455.187,-421.856"/>
<ellipse fill="none" stroke="#6a12e1" cx="434.386" cy="-456.466" rx="4.00002" ry="4.00002"/>
<polygon fill="#6a12e1" stroke="#6a12e1" points="455.312,-421.649 464.32,-415.396 457.888,-417.363 460.463,-413.078 460.463,-413.078 460.463,-413.078 457.888,-417.363 456.606,-410.759 455.312,-421.649 455.312,-421.649"/>
</g>
</g>
</svg>
