<?xml version="1.0" encoding="UTF-8" standalone="no"?>
<!DOCTYPE svg PUBLIC "-//W3C//DTD SVG 1.1//EN"
 "http://www.w3.org/Graphics/SVG/1.1/DTD/svg11.dtd">
<!-- Generated by graphviz version 2.26.3 (20100126.1600)
 -->
<!-- Title: models_diagram Pages: 1 -->
<svg width="489pt" height="324pt"
 viewBox="0.00 0.00 489.00 324.00" xmlns="http://www.w3.org/2000/svg" xmlns:xlink="http://www.w3.org/1999/xlink">
<g id="graph1" class="graph" transform="scale(1 1) rotate(0) translate(4 320)">
<title>models_diagram</title>
<polygon fill="white" stroke="white" points="-4,5 -4,-320 486,-320 486,5 -4,5"/>
<!-- _diagram_info -->
<g id="node1" class="node"><title>_diagram_info</title>
<text text-anchor="start" x="8" y="-299.8" font-family="Times Roman,serif" font-size="13.00">Models diagram</text>
<text text-anchor="start" x="8" y="-282.8" font-family="Times Roman,serif" font-size="13.00">Date: Dec 01 2012 &#45; 07:15</text>
<text text-anchor="start" x="8" y="-265.8" font-family="Times Roman,serif" font-size="13.00">Migration version: 20121201011037</text>
<text text-anchor="start" x="8" y="-248.8" font-family="Times Roman,serif" font-size="13.00">Generated by RailRoady 1.1.0</text>
<text text-anchor="start" x="8" y="-231.8" font-family="Times Roman,serif" font-size="13.00">http://railroady.prestonlee.com</text>
</g>
<!-- UserGroup -->
<g id="node2" class="node"><title>UserGroup</title>
<ellipse fill="none" stroke="black" cx="271" cy="-93" rx="63.8479" ry="18.3848"/>
<text text-anchor="middle" x="271" y="-89.4" font-family="Times Roman,serif" font-size="14.00">UserGroup</text>
</g>
<!-- User -->
<g id="node3" class="node"><title>User</title>
<ellipse fill="none" stroke="black" cx="302" cy="-269" rx="33.9411" ry="18.3848"/>
<text text-anchor="middle" x="302" y="-265.4" font-family="Times Roman,serif" font-size="14.00">User</text>
</g>
<!-- User&#45;&gt;UserGroup -->
<g id="edge4" class="edge"><title>User&#45;&gt;UserGroup</title>
<path fill="none" stroke="#16a356" d="M282.753,-245.053C271.362,-229.295 258.016,-207.645 252,-186 245.978,-164.332 251.776,-139.336 258.503,-120.719"/>
<ellipse fill="none" stroke="#16a356" cx="285.429" cy="-248.649" rx="4.00002" ry="4.00002"/>
<polygon fill="#16a356" stroke="#16a356" points="258.522,-120.671 266.349,-112.991 260.339,-116.013 262.157,-111.355 262.157,-111.355 262.157,-111.355 260.339,-116.013 257.965,-109.719 258.522,-120.671 258.522,-120.671"/>
</g>
<!-- BillSplit -->
<g id="node4" class="node"><title>BillSplit</title>
<ellipse fill="none" stroke="black" cx="170" cy="-19" rx="48.0833" ry="18.3848"/>
<text text-anchor="middle" x="170" y="-15.4" font-family="Times Roman,serif" font-size="14.00">BillSplit</text>
</g>
<!-- User&#45;&gt;BillSplit -->
<g id="edge10" class="edge"><title>User&#45;&gt;BillSplit</title>
<path fill="none" stroke="#c036b2" d="M277.871,-246.842C252.142,-217.578 212.651,-163.686 189,-112 179.513,-91.2679 172.237,-66.4916 168.808,-47.727"/>
<ellipse fill="none" stroke="#c036b2" cx="280.782" cy="-250.076" rx="4.00002" ry="4.00002"/>
<polygon fill="#c036b2" stroke="#c036b2" points="168.789,-47.6027 171.726,-37.0375 168.034,-42.6601 167.278,-37.7176 167.278,-37.7176 167.278,-37.7176 168.034,-42.6601 162.83,-38.3976 168.789,-47.6027 168.789,-47.6027"/>
</g>
<!-- Bill -->
<g id="node6" class="node"><title>Bill</title>
<ellipse fill="none" stroke="black" cx="380" cy="-93" rx="27" ry="18.3848"/>
<text text-anchor="middle" x="380" y="-89.4" font-family="Times Roman,serif" font-size="14.00">Bill</text>
</g>
<!-- User&#45;&gt;Bill -->
<g id="edge8" class="edge"><title>User&#45;&gt;Bill</title>
<path fill="none" stroke="#10a375" d="M312.782,-241.915C321.956,-226.131 334.337,-205.541 343,-186 352.559,-164.441 360.03,-138.679 366.31,-119.743"/>
<polygon fill="#10a375" stroke="#10a375" points="312.773,-241.931 303.899,-248.373 310.288,-246.27 307.804,-250.609 307.804,-250.609 307.804,-250.609 310.288,-246.27 311.709,-252.845 312.773,-241.931 312.773,-241.931"/>
<polygon fill="#10a375" stroke="#10a375" points="366.321,-119.71 373.839,-111.727 367.953,-114.984 369.586,-110.258 369.586,-110.258 369.586,-110.258 367.953,-114.984 365.332,-108.789 366.321,-119.71 366.321,-119.71"/>
</g>
<!-- Group -->
<g id="node7" class="node"><title>Group</title>
<ellipse fill="none" stroke="black" cx="302" cy="-167" rx="41.2167" ry="18.3848"/>
<text text-anchor="middle" x="302" y="-163.4" font-family="Times Roman,serif" font-size="14.00">Group</text>
</g>
<!-- User&#45;&gt;Group -->
<g id="edge6" class="edge"><title>User&#45;&gt;Group</title>
<path fill="none" stroke="#4ec260" d="M302,-240.054C302,-226.256 302,-209.791 302,-195.987"/>
<polygon fill="#4ec260" stroke="#4ec260" points="302,-240.292 297.5,-250.292 302,-245.292 302,-250.292 302,-250.292 302,-250.292 302,-245.292 306.5,-250.292 302,-240.292 302,-240.292"/>
<polygon fill="#4ec260" stroke="#4ec260" points="302,-195.59 306.5,-185.59 302,-190.59 302,-185.59 302,-185.59 302,-185.59 302,-190.59 297.5,-185.59 302,-195.59 302,-195.59"/>
</g>
<!-- Role -->
<g id="node8" class="node"><title>Role</title>
<ellipse fill="none" stroke="black" cx="449" cy="-167" rx="32.0265" ry="18.3848"/>
<text text-anchor="middle" x="449" y="-163.4" font-family="Times Roman,serif" font-size="14.00">Role</text>
</g>
<!-- User&#45;&gt;Role -->
<g id="edge2" class="edge"><title>User&#45;&gt;Role</title>
<path fill="none" stroke="#303f17" d="M322.304,-243.639C329.043,-236.134 336.904,-228.259 345,-222 366.019,-205.75 392.529,-191.813 413.523,-182.035"/>
<polygon fill="#303f17" stroke="#303f17" points="322.013,-243.976 312.07,-248.601 318.744,-247.76 315.475,-251.543 315.475,-251.543 315.475,-251.543 318.744,-247.76 318.88,-254.485 322.013,-243.976 322.013,-243.976"/>
<polygon fill="#303f17" stroke="#303f17" points="413.639,-181.982 424.604,-181.938 418.19,-179.912 422.741,-177.842 422.741,-177.842 422.741,-177.842 418.19,-179.912 420.878,-173.746 413.639,-181.982 413.639,-181.982"/>
</g>
<!-- BillSplit&#45;&gt;User -->
<g id="edge12" class="edge"><title>BillSplit&#45;&gt;User</title>
<path fill="none" stroke="#cdcab0" d="M183.282,-45.0495C189.538,-64.0872 197.055,-90.2659 207,-112 229.535,-161.247 266.451,-212.497 287.263,-242.538"/>
<ellipse fill="none" stroke="#cdcab0" cx="181.96" cy="-41.1496" rx="4.00001" ry="4.00001"/>
<polygon fill="#cdcab0" stroke="#cdcab0" points="287.269,-242.546 289.216,-253.338 290.098,-246.669 292.927,-250.792 292.927,-250.792 292.927,-250.792 290.098,-246.669 296.637,-248.246 287.269,-242.546 287.269,-242.546"/>
</g>
<!-- Ability -->
<g id="node5" class="node"><title>Ability</title>
<polygon fill="none" stroke="black" points="414,-287 354,-287 354,-251 414,-251 414,-287"/>
<text text-anchor="middle" x="384" y="-265.4" font-family="Times Roman,serif" font-size="14.00">Ability</text>
</g>
<!-- Bill&#45;&gt;User -->
<g id="edge16" class="edge"><title>Bill&#45;&gt;User</title>
<path fill="none" stroke="#79af4a" d="M381.402,-119.587C378.071,-138.538 370.585,-164.382 361,-186 351.795,-206.761 338.394,-228.707 326.462,-244.815"/>
<ellipse fill="none" stroke="#79af4a" cx="382.003" cy="-115.618" rx="4.00001" ry="4.00001"/>
<polygon fill="#79af4a" stroke="#79af4a" points="326.15,-245.218 316.465,-250.361 323.085,-249.168 320.021,-253.119 320.021,-253.119 320.021,-253.119 323.085,-249.168 323.576,-255.877 326.15,-245.218 326.15,-245.218"/>
</g>
<!-- Bill&#45;&gt;BillSplit -->
<g id="edge14" class="edge"><title>Bill&#45;&gt;BillSplit</title>
<path fill="none" stroke="#4f510c" d="M351.534,-77.3846C349.013,-76.1824 346.478,-75.0356 344,-74 303.162,-56.9314 255.075,-42.1121 219.814,-32.1706"/>
<ellipse fill="none" stroke="#4f510c" cx="355.405" cy="-79.3156" rx="4.00002" ry="4.00002"/>
<polygon fill="#4f510c" stroke="#4f510c" points="219.4,-32.0552 210.974,-25.0367 214.583,-30.7134 209.766,-29.3717 209.766,-29.3717 209.766,-29.3717 214.583,-30.7134 208.559,-33.7066 219.4,-32.0552 219.4,-32.0552"/>
</g>
<!-- Group&#45;&gt;UserGroup -->
<g id="edge20" class="edge"><title>Group&#45;&gt;UserGroup</title>
<path fill="none" stroke="#d973d7" d="M291.19,-141.195C288.446,-134.646 285.486,-127.58 282.701,-120.931"/>
<ellipse fill="none" stroke="#d973d7" cx="292.792" cy="-145.019" rx="4.00002" ry="4.00002"/>
<polygon fill="#d973d7" stroke="#d973d7" points="282.654,-120.819 282.941,-109.857 280.722,-116.207 278.79,-111.596 278.79,-111.596 278.79,-111.596 280.722,-116.207 274.64,-113.334 282.654,-120.819 282.654,-120.819"/>
</g>
<!-- Group&#45;&gt;Bill -->
<g id="edge18" class="edge"><title>Group&#45;&gt;Bill</title>
<path fill="none" stroke="#802d29" d="M325.568,-144.641C335.366,-135.345 346.713,-124.58 356.504,-115.291"/>
<ellipse fill="none" stroke="#802d29" cx="322.601" cy="-147.455" rx="4.00002" ry="4.00002"/>
<polygon fill="#802d29" stroke="#802d29" points="356.708,-115.098 367.06,-111.48 360.335,-111.656 363.962,-108.215 363.962,-108.215 363.962,-108.215 360.335,-111.656 360.865,-104.951 356.708,-115.098 356.708,-115.098"/>
</g>
</g>
</svg>
